# xmcd
#
# Track frame offsets: 
#        225
#        16375
#        25516
#        35001
#        55835
#        67391
#        77760
#        87669
#        104210
#        114661
#        125916
#        141570
#        154935
#        164069
#        175932
#        187285
#        197300
#        208195
#        221999
#        235604
#        247805
#        260804
#        274570
#        285401
#        298695
#
# Disc length: 4130 seconds
#
# Revision: 0
# Processed by: cddbd v1.4PL0 Copyright (c) Steve Scherf et al.
# Submitted via: ExactAudioCopy v0.90b4
#
DISCID=94101f19
DTITLE=Various Artist - Stoleti trampingu 2
DYEAR=1999
DGENRE=Country
TTITLE0=Wabi and Miki Ryvolove - Letokruhy
TTITLE1=Wabi Danek - Fram
TTITLE2=Spojene trampske osady Praha - Ruty suty
TTITLE3=Frantisek Nedved - Ascallona
TTITLE4=Pacifik - Blativa cesta
TTITLE5=Kluci Luby - Pada soumrak bledy
TTITLE6=Mustangove - Lokalka
TTITLE7=Eva Olmerova - Cajova ruze
TTITLE8=Wabi Ryvola - Zpoved
TTITLE9=Ztracenkari - Cariboo
TTITLE10=Spojene trampske osady Brno - Pisen o nose
TTITLE11=Miki Ryvola - Tunel jmenem cas
TTITLE12=Jan Nedved and Brontosauri - Tramp
TTITLE13=Cervanek - Kacak
TTITLE14=Inkognito - To nase mladi
TTITLE15=Jaroslat Stercl - Serif Tobbi
TTITLE16=Karabina and Rowers - Jerry z Fort Adamsonu
TTITLE17=Rohaci - Toulavej
TTITLE18=KTO - Silhavy marinak
TTITLE19=Spojene tramske osady Brno - Reka zpiva
TTITLE20=Westmeni - Pisen stareho pistolnika
TTITLE21=Kapitan Kid - Bila Bonanza
TTITLE22=Wabi Ryvola - Rychle sipy
TTITLE23=Zelena sedma - Pisen severu
TTITLE24=Pacifik - Dal, dal, dal
EXTD=
EXTT0=
EXTT1=
EXTT2=
EXTT3=
EXTT4=
EXTT5=
EXTT6=
EXTT7=
EXTT8=
EXTT9=
EXTT10=
EXTT11=
EXTT12=
EXTT13=
EXTT14=
EXTT15=
EXTT16=
EXTT17=
EXTT18=
EXTT19=
EXTT20=
EXTT21=
EXTT22=
EXTT23=
EXTT24=
PLAYORDER=
